<?xml version="1.0" encoding="utf-8"?>
<!-- Generator: Adobe Illustrator 19.1.0, SVG Export Plug-In . SVG Version: 6.00 Build 0)  -->
<svg version="1.1" id="Layer_1" xmlns="http://www.w3.org/2000/svg" xmlns:xlink="http://www.w3.org/1999/xlink" x="0px" y="0px"
	 viewBox="0 0 67.2 116.5" style="enable-background:new 0 0 67.2 116.5;" xml:space="preserve">
<style type="text/css">
	.st0{opacity:0.7;fill:#FFFFFF;stroke:#FFFFFF;stroke-width:2;stroke-miterlimit:10;}
	.st1{fill:#F37722;stroke:#FFFFFF;stroke-width:2;stroke-miterlimit:10;}
	.st2{fill:#FFFFFF;}
</style>
<g>
	<polyline class="st0" points="3,44.6 33.6,113.5 62.3,48.9 	"/>
	<circle class="st1" cx="33.6" cy="33.6" r="32.6"/>
	<g>
		<g>
			<path class="st2" d="M52,41l0.1-0.1l0,0L52.2,26v0v0v0h0l-2.4-3.5c-0.4-0.5-1.1-1.3-1.7-1.6l-10.8-6.2c-0.6-0.3-1.6-0.6-2.2-0.7
				l-4.2-0.1v0l0,0l-13,7.5l0,0l0,0L16.1,25c-0.3,0.6-0.5,1.6-0.5,2.3l0,12.6c0,0.7,0.2,1.7,0.5,2.3l1.8,3.6l0,0l12.9,7.5l0,0v0
				l0.4,0v0l0,0l4-0.3c0.7,0,1.7-0.4,2.2-0.7l10.7-6.2c0.6-0.3,1.3-1,1.7-1.6L52,41L52,41L52,41z M30.7,51.6l-11.1-6.3L21,34.8
				l12-0.1L39,45.2L30.7,51.6z M39,21.7L33,32.2l-12,0l-1.5-10.4l11.2-6.4L39,21.7z M40.9,43.9l-6-10.5L40.8,23l9.8,4l0,12.8
				L40.9,43.9z M51.8,26L51.8,26L51.8,26L51.8,26z M37.1,15.7l10.1,5.9c0.5,0.3,1,0.6,1.3,1.1l1.4,2.1l-9.1-3.7l-7.9-6l2.3,0
				C35.8,15.1,36.6,15.4,37.1,15.7z M16.5,39.4l-0.2-11.6c0-0.6,0.2-1.5,0.4-2l1.2-2l1.4,9.8l-1.3,9.7L17,41.4
				C16.7,40.9,16.5,40,16.5,39.4z M48.9,44.2c-0.3,0.5-1,1.1-1.5,1.4l-9.9,5.6c-0.5,0.3-1.4,0.7-2,0.7l-2.4-0.1l7.7-6l9.1-3.8
				L48.9,44.2z"/>
			<path class="st2" d="M47.9,29.4L41.8,27c-0.1,0-0.2,0-0.2,0.1c0,0.1,0,0.2,0.1,0.2l5.2,3l0.9,8.3c0,0.1,0.1,0.1,0.1,0.1h0
				c0.1,0,0.1-0.1,0.1-0.1L47.9,29.4z"/>
			<path class="st2" d="M23.5,30.7c0,0.1,0.1,0.1,0.1,0.1c0,0,0,0,0,0c0.1,0,0.1-0.1,0.1-0.2l-0.2-6.8l7.2-4.9
				c0.1,0,0.1-0.1,0.1-0.2c0-0.1-0.1-0.1-0.2-0.1l-8.2,4.6L23.5,30.7z"/>
			<path class="st2" d="M36,44.6c0-0.1-0.1-0.1-0.2,0l-5.1,3.2L22.7,44c-0.1,0-0.1,0-0.2,0.1c0,0.1,0,0.1,0.1,0.2l8,4.7l0.1,0
				l5.2-4.1C36,44.8,36,44.7,36,44.6z"/>
		</g>
	</g>
	<ellipse class="st2" cx="33.6" cy="113.7" rx="5.5" ry="2.8"/>
</g>
</svg>
