<?xml version="1.0" encoding="utf-8"?>
<!DOCTYPE svg PUBLIC "-//W3C//DTD SVG 1.1//EN" "http://www.w3.org/Graphics/SVG/1.1/DTD/svg11.dtd">
<svg version="1.1" id="Layer_1" xmlns="http://www.w3.org/2000/svg" xmlns:xlink="http://www.w3.org/1999/xlink" x="0px" y="0px"
	 viewBox="0 0 329.4 87.9" enable-background="new 0 0 329.4 87.9" xml:space="preserve">
<g>
	<g>
		<path fill="#828282" d="M92.8,32.8c3.5-0.9,6.5-3.7,6.5-8.7c0-5.4-3.9-9.2-9.6-9.2h-12v29.3h5.2V33.4h4.1l7,10.9h6.2L92.8,32.8z
			 M83.1,19.8h6.3c2.8,0,4.6,1.7,4.6,4.3c0,2.6-1.9,4.4-4.6,4.4h-6.3V19.8z"/>
		<path fill="#828282" d="M118.8,15V35c0,3-1.8,4.9-4.6,4.9c-1.7,0-3.1-0.8-4.4-2.4l-0.8-1l-2.9,4.2l0.5,0.5c2,2.4,4.6,3.5,7.9,3.5
			c6,0,9.7-3.7,9.7-9.7V15H118.8z"/>
		<polygon fill="#828282" points="160.2,15 159.4,15 157.9,15 148.4,38.1 138.9,15 137.4,15 136.6,15 135.3,15 135.3,44.3 
			138.4,44.3 138.4,22 147.6,44.3 149.2,44.3 158.4,22 158.4,44.3 161.6,44.3 161.6,15 		"/>
		<polygon fill="#828282" points="191.8,18 191.8,15 173.2,15 173.2,44.3 191.8,44.3 191.8,41.2 176.3,41.2 176.3,30.8 191.5,30.8 
			191.5,27.7 176.3,27.7 176.3,18 		"/>
		<polygon fill="#828282" points="200.3,15 200.3,18 209.5,18 209.5,44.3 212.7,44.3 212.7,18 222,18 222,15 		"/>
		<path fill="#828282" d="M243.6,32.3c4.4-0.7,7.3-4,7.3-8.6c0-5.1-3.7-8.7-9-8.7h-10.4v29.3h3.1V32.4h5.2l8.4,11.9h3.9L243.6,32.3z
			 M234.7,18h7.2c3.4,0,5.8,2.3,5.8,5.6c0,3.4-2.3,5.7-5.8,5.7h-7.2V18z"/>
		<rect x="261.6" y="15" fill="#828282" width="3.1" height="29.3"/>
		<path fill="#828282" d="M298.4,37.3l-0.6,0.7c-1.8,2.3-4.7,3.7-7.8,3.7c-6.6,0-11.4-5.1-11.4-12.1c0-7,4.8-12.1,11.4-12.1
			c3.1,0,6,1.4,7.8,3.7l0.6,0.8l2.4-2.1l-0.6-0.7c-2.6-3-6.2-4.6-10.3-4.6c-8.3,0-14.6,6.5-14.6,15.1s6.3,15.1,14.6,15.1
			c4.1,0,7.5-1.5,10.3-4.7l0.6-0.7L298.4,37.3z"/>
		<path fill="#828282" d="M319.5,27.4c-4.3-1.2-6.8-2.2-6.8-4.9c0-2.8,2.7-4.9,6.3-4.9c3.1,0,5.5,1.1,7.1,3.2l0.6,0.8l2.4-2.2
			l-0.5-0.7c-2.2-2.8-5.6-4.2-9.6-4.2c-4.7,0-9.5,2.7-9.5,7.9c0,5.4,4.8,6.8,9.1,8c4.7,1.3,7.6,2.4,7.6,6c0,1.2-0.5,5.3-7,5.3
			c-4.1,0-6.7-2.3-7.8-3.7l-0.6-0.7l-2.4,2.1l0.5,0.7c2.4,3,6.1,4.7,10.3,4.7c7.6,0,10.3-4.5,10.3-8.4
			C329.4,30.2,323.9,28.6,319.5,27.4z"/>
	</g>
	<g>
		<path fill="#828282" d="M53.8,17.8l-3.5-5.2c-0.6-0.8-1.7-1.9-2.6-2.4l-15.8-9c-0.9-0.5-2.4-0.9-3.3-1L22.5,0c-0.1,0-0.1,0-0.2,0
			L3.4,10.9c-0.1,0-0.1,0.1-0.1,0.2l-2.5,5.1C0.3,17.1,0,18.6,0,19.6L0,38c0,1,0.4,2.5,0.8,3.4l2.5,5.1c0,0.1,0.1,0.1,0.1,0.1
			l18.8,11c0.1,0,0.1,0.1,0.2,0l6.3-0.4c1-0.1,2.5-0.5,3.3-1l15.6-9c0.9-0.5,2-1.6,2.6-2.4l3.5-5.4c0-0.1,0.1-0.1,0.1-0.2L53.8,17.8
			z M48.8,42.2l-1.1,2.5c-0.4,0.6-1.3,1.4-1.9,1.8l-13.1,7.4c-0.7,0.4-1.9,0.9-2.5,1l-2.8-0.1l9.8-7.6L48.8,42.2z M8.1,30.5l17.6,0
			l8.7,15.3l-12.1,9.4L5.9,46L8.1,30.5z M25.7,26.9l-17.6,0L5.9,11.7l16.4-9.4l12.1,9.2L25.7,26.9z M1.7,21.2c0-0.8,0.3-1.9,0.6-2.6
			l1.3-2.3l1.8,12.5L3.7,41.2l-1.2-2.1c-0.3-0.7-0.6-1.9-0.6-2.6L1.7,21.2z M37.2,10.3L27,2.6l2.6,0c0.7,0,1.8,0.4,2.5,0.8l13.3,7.8
			c0.7,0.4,1.2,0.7,1.7,1.3l1.6,2.4L37.2,10.3z M51.4,38l-14.3,6l-8.7-15.3l8.7-15.2l14.3,5.8L51.4,38z"/>
		<path fill="#828282" d="M37.7,18.4l7.7,4.5l1.4,12.4c0,0.2,0.2,0.3,0.3,0.3h0c0.2,0,0.3-0.2,0.3-0.4l-0.2-13.7l0-0.1L38,17.7
			c-0.2-0.1-0.4,0-0.5,0.2c0,0.1,0,0.2,0,0.3C37.5,18.3,37.6,18.4,37.7,18.4z"/>
		<path fill="#828282" d="M10.3,12.9l1.7,11.1c0,0.2,0.2,0.3,0.3,0.3l0,0c0.2,0,0.3-0.2,0.3-0.4l-0.3-10.1l10.8-7.3
			c0.2-0.1,0.2-0.3,0.1-0.5c-0.1-0.2-0.3-0.2-0.5-0.1L10.3,12.9L10.3,12.9z"/>
		<path fill="#828282" d="M30.2,44.5c0-0.1,0-0.2-0.1-0.3c-0.1-0.2-0.4-0.2-0.5-0.1L22,49l-11.8-5.7c-0.2-0.1-0.4,0-0.5,0.1
			c-0.1,0.2,0,0.4,0.1,0.5l12.3,7.2l8-6.3C30.2,44.7,30.2,44.6,30.2,44.5z"/>
	</g>
</g>
<polygon id="XMLID_113_" fill="#828282" points="114.7,53.7 99.8,62.2 99.8,79.4 104.1,81.8 104,64.7 114.6,58.6 125.2,64.7 
	125.2,81.8 129.5,79.4 129.5,62.2 "/>
<polygon id="XMLID_112_" fill="#828282" points="116.8,81.8 114.7,83 112.5,81.8 112.5,64.7 108.3,67.1 108.3,84.2 114.7,87.9 
	121,84.2 121,67.1 116.8,64.7 "/>
<g id="XMLID_94_">
	<path id="XMLID_111_" fill="#828282" d="M139.2,62.3l5.8,14.7h0l5.7-14.7h2.2v16.9h-1.5V64.5h0c-0.1,0.3-0.2,0.5-0.3,0.8
		c-0.1,0.2-0.2,0.5-0.3,0.7c-0.1,0.3-0.2,0.5-0.3,0.8l-4.9,12.4h-1.4l-4.9-12.4c-0.1-0.2-0.2-0.5-0.3-0.7c-0.1-0.3-0.2-0.5-0.3-0.7
		c-0.1-0.3-0.2-0.6-0.3-0.8h0v14.7H137V62.3H139.2z"/>
	<path id="XMLID_108_" fill="#828282" d="M157.4,79.3c-0.5-0.1-0.9-0.4-1.3-0.6c-0.4-0.3-0.6-0.6-0.8-1.1c-0.2-0.4-0.3-0.9-0.3-1.5
		c0-0.7,0.1-1.3,0.4-1.8c0.3-0.5,0.6-0.8,1.1-1.1c0.5-0.3,1-0.5,1.6-0.6c0.6-0.1,1.3-0.3,1.9-0.3c0.6-0.1,1.1-0.1,1.5-0.2
		c0.4-0.1,0.8-0.2,1-0.3c0.3-0.1,0.4-0.3,0.6-0.4c0.1-0.2,0.2-0.4,0.2-0.7v-0.2c0-0.8-0.3-1.5-0.8-1.9c-0.5-0.4-1.2-0.6-2.2-0.6
		c-2.2,0-3.3,0.9-3.4,2.7h-1.4c0.1-1.2,0.5-2.1,1.3-2.8c0.8-0.7,2-1.1,3.6-1.1c1.3,0,2.4,0.3,3.2,0.9c0.8,0.6,1.2,1.6,1.2,2.9v6.6
		c0,0.4,0.1,0.6,0.2,0.8c0.1,0.2,0.3,0.3,0.6,0.3c0.1,0,0.2,0,0.2,0c0.1,0,0.2,0,0.3-0.1h0.1v1.1c-0.1,0-0.2,0.1-0.4,0.1
		c-0.2,0-0.4,0.1-0.6,0.1c-0.5,0-1-0.1-1.3-0.4c-0.3-0.3-0.5-0.7-0.5-1.3v-0.3h-0.1c-0.2,0.2-0.4,0.5-0.6,0.7
		c-0.2,0.3-0.5,0.5-0.9,0.7c-0.3,0.2-0.7,0.4-1.2,0.5c-0.5,0.1-1,0.2-1.6,0.2C158.4,79.5,157.9,79.4,157.4,79.3 M161,78
		c0.5-0.2,0.9-0.5,1.3-0.8c0.3-0.3,0.6-0.7,0.8-1.1c0.2-0.4,0.3-0.8,0.3-1.3v-2.2c-0.4,0.2-0.9,0.4-1.4,0.5
		c-0.6,0.1-1.1,0.2-1.7,0.3c-0.5,0.1-1,0.2-1.4,0.2c-0.4,0.1-0.8,0.2-1.1,0.4c-0.3,0.2-0.6,0.4-0.8,0.8c-0.2,0.3-0.3,0.7-0.3,1.3
		c0,0.4,0.1,0.8,0.2,1.1c0.1,0.3,0.3,0.5,0.6,0.7c0.2,0.2,0.5,0.3,0.9,0.4c0.3,0.1,0.7,0.1,1,0.1C159.9,78.3,160.5,78.2,161,78"/>
	<path id="XMLID_105_" fill="#828282" d="M168.6,82.6c-0.8-0.6-1.3-1.4-1.4-2.3h1.4c0.1,0.7,0.5,1.2,1.1,1.5
		c0.6,0.3,1.4,0.5,2.3,0.5c1.3,0,2.3-0.3,2.9-0.9c0.6-0.6,0.9-1.5,0.9-2.6v-1.9h-0.1c-0.5,0.7-1,1.2-1.6,1.6
		c-0.6,0.4-1.4,0.5-2.3,0.5c-0.8,0-1.5-0.1-2.2-0.4c-0.6-0.3-1.2-0.7-1.7-1.3c-0.5-0.5-0.8-1.2-1.1-1.9s-0.4-1.6-0.4-2.5
		c0-1,0.1-1.9,0.4-2.6c0.3-0.8,0.7-1.4,1.1-1.9c0.5-0.5,1-0.9,1.7-1.2c0.6-0.3,1.3-0.4,2-0.4c0.9,0,1.7,0.2,2.3,0.6
		c0.6,0.4,1.1,0.9,1.5,1.6h0.1V67h1.4v11.7c0,1.4-0.4,2.4-1.1,3.3c-0.9,1-2.3,1.5-4.1,1.5C170.6,83.5,169.4,83.2,168.6,82.6
		 M175,76.4c0.6-0.9,1-2.1,1-3.5c0-0.7-0.1-1.4-0.2-2c-0.2-0.6-0.4-1.1-0.7-1.5c-0.3-0.4-0.7-0.8-1.2-1c-0.5-0.2-1.1-0.4-1.7-0.4
		c-1.2,0-2.2,0.4-2.8,1.3c-0.7,0.9-1,2.1-1,3.6c0,0.7,0.1,1.3,0.2,1.9c0.2,0.6,0.4,1.1,0.7,1.5c0.3,0.4,0.7,0.8,1.2,1
		c0.5,0.2,1,0.4,1.7,0.4C173.4,77.7,174.4,77.3,175,76.4"/>
	<path id="XMLID_101_" fill="#828282" d="M182.4,79c-0.7-0.3-1.3-0.8-1.8-1.3c-0.5-0.6-0.8-1.3-1.1-2c-0.3-0.8-0.4-1.6-0.4-2.5
		c0-0.9,0.1-1.8,0.4-2.5c0.3-0.8,0.6-1.5,1.1-2c0.5-0.6,1.1-1,1.7-1.3c0.7-0.3,1.5-0.5,2.3-0.5c1,0,1.8,0.2,2.5,0.6
		c0.7,0.4,1.2,0.9,1.6,1.5c0.4,0.6,0.7,1.3,0.9,2.1c0.2,0.8,0.3,1.6,0.3,2.5h-9.3c0,0.7,0.1,1.3,0.3,1.9c0.2,0.6,0.4,1.1,0.8,1.5
		s0.8,0.8,1.3,1c0.5,0.3,1.1,0.4,1.8,0.4c1,0,1.8-0.2,2.4-0.7c0.6-0.5,1-1.2,1.2-2h1.4c-0.3,1.2-0.8,2.2-1.7,2.9
		c-0.8,0.7-1.9,1.1-3.3,1.1C183.9,79.5,183.1,79.4,182.4,79 M188.2,70.5c-0.2-0.5-0.4-1-0.7-1.4c-0.3-0.4-0.7-0.7-1.1-0.9
		s-1-0.3-1.6-0.3c-0.6,0-1.2,0.1-1.6,0.3c-0.5,0.2-0.9,0.5-1.2,0.9c-0.3,0.4-0.6,0.8-0.8,1.4c-0.2,0.5-0.3,1.1-0.4,1.7h7.7
		C188.4,71.6,188.3,71.1,188.2,70.5"/>
	<path id="XMLID_99_" fill="#828282" d="M193.2,67v1.9h0c0.4-0.6,0.9-1.1,1.6-1.5c0.7-0.4,1.5-0.6,2.5-0.6c1.1,0,2.1,0.3,2.8,1
		c0.7,0.7,1.1,1.6,1.1,2.8v8.7h-1.5v-8.5c0-0.9-0.2-1.6-0.7-2c-0.5-0.4-1.2-0.6-2-0.6c-0.5,0-1,0.1-1.5,0.3
		c-0.5,0.2-0.9,0.4-1.2,0.7c-0.3,0.3-0.6,0.7-0.8,1.1c-0.2,0.4-0.3,0.9-0.3,1.4v7.7h-1.5V67H193.2z"/>
	<path id="XMLID_98_" fill="#828282" d="M205,78.8c-0.4-0.3-0.6-0.9-0.6-1.7v-8.9h-1.8V67h1.8v-3.8h1.5V67h2.3v1.2h-2.3v8.7
		c0,0.4,0.1,0.7,0.3,0.9s0.5,0.2,0.9,0.2c0.2,0,0.4,0,0.5-0.1c0.2,0,0.3-0.1,0.4-0.1h0.1v1.3c-0.4,0.1-0.9,0.2-1.3,0.2
		C206,79.3,205.5,79.1,205,78.8"/>
	<path id="XMLID_95_" fill="#828282" d="M212.4,79c-0.7-0.3-1.3-0.8-1.8-1.3c-0.5-0.6-0.9-1.3-1.1-2c-0.3-0.8-0.4-1.6-0.4-2.5
		c0-0.9,0.1-1.8,0.4-2.5c0.3-0.8,0.6-1.5,1.1-2c0.5-0.6,1.1-1,1.8-1.3c0.7-0.3,1.5-0.5,2.4-0.5c0.9,0,1.7,0.2,2.4,0.5
		c0.7,0.3,1.3,0.8,1.8,1.3c0.5,0.6,0.9,1.3,1.1,2c0.3,0.8,0.4,1.6,0.4,2.5c0,0.9-0.1,1.8-0.4,2.5c-0.3,0.8-0.6,1.5-1.1,2
		c-0.5,0.6-1.1,1-1.8,1.3c-0.7,0.3-1.5,0.5-2.4,0.5C213.9,79.5,213.1,79.4,212.4,79 M216.6,77.9c0.5-0.3,1-0.6,1.3-1.1
		c0.3-0.5,0.6-1,0.8-1.7c0.2-0.6,0.3-1.3,0.3-2s-0.1-1.4-0.3-2c-0.2-0.6-0.4-1.2-0.8-1.7c-0.3-0.5-0.8-0.8-1.3-1.1
		c-0.5-0.3-1.1-0.4-1.8-0.4c-0.7,0-1.3,0.1-1.8,0.4c-0.5,0.3-0.9,0.6-1.3,1.1c-0.4,0.5-0.6,1-0.8,1.7c-0.2,0.6-0.3,1.3-0.3,2
		s0.1,1.4,0.3,2c0.2,0.6,0.4,1.2,0.8,1.7c0.4,0.5,0.8,0.8,1.3,1.1c0.5,0.3,1.1,0.4,1.8,0.4C215.5,78.3,216.1,78.2,216.6,77.9"/>
</g>
<g>
	<path fill="#828282" d="M83,62.7h1.7l6,16.8h-1.3l-1.9-5.2H80l-1.8,5.2h-1.2L83,62.7z M80.4,73.3h6.8l-3.4-9.5L80.4,73.3z"/>
</g>
<g>
	<path fill="#828282" d="M226,71.2V71c0-5,3.4-8.5,7.8-8.5c3.5,0,6.3,1.8,6.8,5.3h-1.3c-0.5-2.7-2.4-4.2-5.5-4.2
		c-3.8,0-6.5,3-6.5,7.5v0.2c0,4.5,2.5,7.4,6.5,7.4c3,0,5.2-1.6,5.7-4.5h1.2c-0.6,3.6-3.4,5.6-7,5.6C229,79.7,226,76.3,226,71.2z"/>
	<path fill="#828282" d="M242.8,73.5v-0.2c0-3.7,2.7-6.3,6-6.3c3.3,0,5.9,2.5,5.9,6.2v0.2c0,3.7-2.6,6.3-6,6.3
		C245.4,79.7,242.8,77.1,242.8,73.5z M253.4,73.5v-0.2c0-3.2-2-5.2-4.6-5.2c-2.6,0-4.7,2-4.7,5.2v0.2c0,3.2,2,5.2,4.7,5.2
		C251.4,78.6,253.4,76.6,253.4,73.5z"/>
	<path fill="#828282" d="M257.6,67.2h1.2v2.3c0.6-1.3,2-2.5,4-2.5c1.8,0,3.2,0.8,3.8,2.8c0.8-1.7,2.5-2.8,4.4-2.8
		c2.4,0,4.1,1.3,4.1,4.8v7.7h-1.2v-7.8c0-2.6-1.1-3.6-3.1-3.6c-1.9,0-3.8,1.3-3.8,3.9v7.5h-1.2v-7.8c0-2.6-1.1-3.6-3.1-3.6
		c-1.9,0-3.8,1.3-3.8,3.9v7.5h-1.2V67.2z"/>
	<path fill="#828282" d="M278.9,67.2h1.2v2.9c0.7-1.6,2.5-3.1,4.7-3.1c3.1,0,5.5,2.4,5.5,6.2v0.2c0,3.9-2.4,6.3-5.5,6.3
		c-2.4,0-4-1.5-4.7-3v7.1h-1.2V67.2z M289.1,73.5v-0.2c0-3.4-2-5.2-4.4-5.2c-2.4,0-4.6,1.8-4.6,5.2v0.2c0,3.4,2,5.2,4.6,5.2
		C287.3,78.6,289.1,76.8,289.1,73.5z"/>
	<path fill="#828282" d="M292.4,76.2c0-2.8,2.7-3.7,5.8-3.7h2.6v-1.1c0-2.3-0.9-3.3-3.1-3.3c-1.9,0-3.2,0.8-3.5,2.6H293
		c0.3-2.6,2.4-3.7,4.7-3.7c2.6,0,4.3,1.2,4.3,4.4v8.1h-1.2v-1.9c-0.8,1.2-2.1,2.1-4.2,2.1C294.2,79.7,292.4,78.5,292.4,76.2z
		 M300.7,75.5v-2.1h-2.5c-2.6,0-4.6,0.5-4.6,2.8c0,1.6,1,2.5,3,2.5C298.9,78.7,300.7,77.4,300.7,75.5z"/>
	<path fill="#828282" d="M305.8,67.2h1.2v2.4c0.6-1.3,2.2-2.6,4.4-2.6c2.6,0,4.4,1.4,4.4,4.9v7.6h-1.2v-7.6c0-2.6-1.2-3.8-3.4-3.8
		c-2,0-4.1,1.4-4.1,4v7.5h-1.2V67.2z"/>
	<path fill="#828282" d="M322.7,78.4l-4.9-11.2h1.3l4.2,9.8l3.9-9.8h1.3l-6.8,16.6h-1.3L322.7,78.4z"/>
</g>
</svg>
